<svg xmlns="http://www.w3.org/2000/svg" xmlns:svg="http://www.w3.org/2000/svg" id="Layer_1" width="165.2" height="131.82" x="0" y="0" version="1.1" viewBox="0 0 165.2 131.82" xml:space="preserve"><style id="style2" type="text/css">.st0{fill:#d1d3d4}.st1{fill:#785fa9}</style><path id="path28" d="m 14.7,101.0596 1.8,2.9 c -1.4,1.3 -3,2.1 -4.4,2.6 -1,0.3 -2.2,0.4 -3.1,0.4 -1.8,0 -3.4,-0.4 -4.8,-1.1 -1.4,-0.7 -2.4,-1.7 -3.1,-3 -0.7,-1.3 -1.1,-2.7 -1.1,-4.399996 0,-1.6 0.4,-3 1.2,-4.3 0.8,-1.3 1.9,-2.3 3.3,-3.1 1.4,-0.8 2.9,-1.1 4.5,-1.1 2.2,0 3.9,0.6 5.4,1.9 1.4,1.3 2.4,3 2.9,5.4 L 5.1,101.3596 c 0.4,0.7 1,1.2 1.7,1.5 0.7,0.4 1.5,0.5 2.3,0.5 2.6,0 4.5,-1.1 5.6,-2.3 z M 5.5,94.659604 c -0.8,0.9 -1.3,2.1 -1.3,3.6 0,0.3 0,0.5 0,0.6 l 8.3,-3 c -0.3,-0.8 -0.8,-1.4 -1.4,-1.9 -0.6,-0.5 -1.4,-0.8 -2.4,-0.8 -1.3,0.1 -2.3,0.6 -3.2,1.5 z" class="st1"/><path id="path30" d="m 34.5,91.359604 c 1,0.9 1.5,2 1.5,3.4 V 106.5596 H 31.8 V 96.259604 c 0,-0.8 -0.3,-1.5 -0.7,-2 -0.4,-0.5 -1.1,-0.7 -2,-0.8 -1.3,0 -2.4,0.6 -3.2,1.7 -0.8,1.1 -1.3,2.5 -1.3,4.3 V 106.5596 H 20.4 V 90.659604 h 3.8 l 0.3,2.8 c 0.6,-1.1 1.4,-2 2.5,-2.6 1.1,-0.6 2.3,-0.9 3.8,-0.9 1.5,0 2.7,0.5 3.7,1.4 z" class="st1"/><path id="path32" d="m 46.6,83.659599 v 7.000005 h 4.1 v 3.3 H 46.6 V 106.5596 H 42.4 V 93.959604 h -2.7 v -3.3 h 2.7 v -7.000005 z" class="st1"/><path id="path34" d="m 79.8,92.059604 c 0.8,-0.7 1.6,-1.2 2.4,-1.6 0.799996,-0.4 1.499996,-0.5 1.999996,-0.5 l -0.2,4.2 c -1.2,-0.1 -2.199996,0.1 -3.099996,0.6 -0.9,0.5 -1.6,1.2 -2.1,2.1 -0.5,0.9 -0.8,1.8 -0.8,2.8 V 106.4596 H 73.8 V 90.559604 h 3.8 l 0.3,3.7 c 0.5,-0.8 1.1,-1.5 1.9,-2.2 z" class="st1"/><path id="path36" d="m 115.1,92.059604 c 0.8,-0.7 1.6,-1.2 2.4,-1.6 0.8,-0.4 1.5,-0.5 2,-0.5 l -0.2,4.2 c -1.2,-0.1 -2.2,0.1 -3.1,0.6 -0.9,0.5 -1.6,1.2 -2.1,2.1 -0.5,0.9 -0.8,1.8 -0.8,2.8 v 6.799996 h -4.2 V 90.559604 h 3.8 l 0.3,3.7 c 0.6,-0.8 1.2,-1.5 1.9,-2.2 z" class="st1"/><path id="path38" d="m 124.5,83.359599 c 0.5,-0.4 1.1,-0.7 1.7,-0.7 0.6,0 1.1,0.2 1.6,0.7 0.5,0.4 0.7,1 0.7,1.6 0,0.6 -0.2,1.2 -0.7,1.6 -0.5,0.4 -1,0.6 -1.6,0.6 -0.6,0 -1.2,-0.2 -1.7,-0.6 -0.5,-0.4 -0.8,-1 -0.8,-1.6 0,-0.6 0.3,-1.1 0.8,-1.6 z m 3.6,7.300005 V 106.5596 h -4.2 V 90.659604 Z" class="st1"/><path id="path40" d="m 135.2,106.2596 c -1.1,-0.4 -2,-1.1 -2.7,-1.9 l 1.8,-2.4 c 1.3,1.3 2.7,2 4.1,2 0.8,0 1.4,-0.1 1.9,-0.4 0.5,-0.3 0.7,-0.7 0.7,-1.3 0,-0.6 -0.3,-1.1 -0.8,-1.4 -0.5,-0.3 -1.1,-0.5 -1.7,-0.7 -0.6,-0.199996 -1,-0.299996 -1.2,-0.399996 -1.4,-0.4 -2.4,-1 -3.1,-1.9 -0.7,-0.8 -1,-1.8 -1,-2.9 0,-0.9 0.2,-1.7 0.7,-2.5 0.4,-0.8 1.1,-1.4 2,-1.9 0.9,-0.5 2,-0.7 3.2,-0.7 1.2,0 2.2,0.1 3.1,0.4 0.9,0.3 1.7,0.7 2.5,1.3 l -1.6,2.5 c -0.5,-0.4 -1,-0.8 -1.6,-1 -0.6,-0.3 -1.2,-0.4 -1.7,-0.4 -0.7,0 -1.2,0.2 -1.6,0.5 -0.4,0.3 -0.6,0.7 -0.6,1.2 0,0.6 0.2,1 0.6,1.3 0.5,0.3 1.2,0.6 2.2,0.9 0.4,0.1 0.7,0.2 0.8,0.3 1.3,0.4 2.2,1 2.9,1.7 0.7,0.7 1.1,1.599996 1.1,2.799996 0,1.6 -0.6,2.8 -1.7,3.9 -1.1,1 -2.7,1.6 -4.8,1.6 -1.3,0 -2.4,-0.2 -3.5,-0.6 z" class="st1"/><path id="path48" d="m 104.8,94.059604 c -0.7,-1.3 -1.6,-2.3 -2.8,-3 -1.2,-0.7 -2.500004,-1.1 -4.000004,-1.1 -1.3,0 -2.5,0.3 -3.5,0.8 -1.1,0.5 -2,1.2 -2.9,2 l -0.4,-2.4 h -3.6 V 112.8596 c 0.1,0 0.2,0 0.3,0 1.6,0 2.9,0.4 3.9,1 v -9.3 c 0.6,0.7 1.4,1.3 2.4,1.7 1,0.4 2,0.6 3,0.6 1.7,0 3.100004,-0.3 4.500004,-1 1.3,-0.7 2.3,-1.7 3.1,-2.9 0.7,-1.3 1.1,-2.8 1.1,-4.499996 -0.1,-1.6 -0.4,-3.1 -1.1,-4.4 z m -4,7.099996 c -0.5,0.8 -1.100004,1.3 -1.900004,1.8 -0.8,0.4 -1.6,0.7 -2.6,0.7 -1.2,0 -2.1,-0.3 -3,-1 -0.8,-0.7 -1.4,-1.5 -1.6,-2.5 v -3.199996 c 0.4,-1.1 1,-1.9 1.8,-2.5 0.8,-0.6 1.9,-0.9 3.1,-0.9 1.4,0 2.5,0.5 3.500004,1.4 0.9,1 1.4,2.2 1.4,3.7 0,0.9 -0.2,1.799996 -0.7,2.499996 z" class="st1"/><g id="g398" transform="translate(-13.211222,-14.044733)"><path id="path42" d="m 40.101074,145.36505 c -1,0.3 -2,0.5 -3.1,0.5 -1.8,0 -3.3,-0.3 -4.6,-1 -1.3,-0.7 -2.4,-1.6 -3.1,-2.9 -0.7,-1.3 -1.1,-2.7 -1.1,-4.5 0,-1.7 0.4,-3.1 1.2,-4.4 0.8,-1.3 1.8,-2.2 3.1,-2.9 1.3,-0.7 2.7,-1 4.2,-1 2.5,0 4.6,0.7 6.2,2 l -2.1,2.7 c -0.5,-0.4 -1,-0.7 -1.7,-1 -0.6,-0.3 -1.3,-0.4 -2,-0.4 -1.3,0 -2.4,0.5 -3.2,1.4 -0.9,0.9 -1.3,2.1 -1.3,3.5 0,1.4 0.5,2.6 1.4,3.5 0.9,0.9 2.1,1.4 3.6,1.4 1.3,0 2.3,-0.4 3.2,-1.1 l 2.1,2.6 c -1,0.8 -1.8,1.2 -2.8,1.6 z" class="st1"/><path id="path44" d="m 45.601074,132.96505 c 0.8,-1.3 1.8,-2.3 3.2,-3.1 1.4,-0.7 2.9,-1.1 4.6,-1.1 1.7,0 3.3,0.4 4.6,1.1 1.3,0.7 2.4,1.8 3.1,3 0.7,1.3 1.1,2.7 1.1,4.3 0,1.6 -0.4,3 -1.1,4.3 -0.7,1.3 -1.8,2.3 -3.1,3.1 -1.3,0.8 -2.9,1.1 -4.6,1.1 -1.7,0 -3.2,-0.3 -4.6,-1 -1.4,-0.7 -2.4,-1.7 -3.2,-3 -0.8,-1.3 -1.1,-2.8 -1.1,-4.5 -0.1,-1.4 0.3,-2.9 1.1,-4.2 z m 4.4,8 c 0.9,1 2,1.4 3.3,1.4 1.4,0 2.5,-0.5 3.3,-1.4 0.9,-1 1.3,-2.2 1.3,-3.6 0,-1.5 -0.4,-2.7 -1.3,-3.6 -0.9,-1 -2,-1.4 -3.3,-1.4 -1.3,0 -2.4,0.5 -3.3,1.5 -0.9,1 -1.3,2.2 -1.3,3.6 0,1.3 0.4,2.5 1.3,3.5 z" class="st1"/><path id="path46" d="m 79.701074,130.16505 c 1,0.9 1.5,2 1.5,3.4 v 11.8 h -4.2 v -10.2 c 0,-0.8 -0.3,-1.5 -0.7,-2 -0.4,-0.5 -1.1,-0.7 -2,-0.8 -1.3,0 -2.4,0.6 -3.2,1.7 -0.8,1.1 -1.3,2.5 -1.3,4.3 v 7.1 h -4.2 v -15.9 h 3.8 l 0.3,2.8 c 0.6,-1.1 1.4,-2 2.5,-2.6 1.1,-0.6 2.3,-0.9 3.8,-0.9 1.4,0 2.7,0.4 3.7,1.3 z" class="st1"/><path id="path50" d="m 92.701074,122.56505 v 7 h 4.1 v 3.3 h -4.1 v 12.6 h -4.2 v -12.6 h -2.7 v -3.3 h 2.7 v -7 z" class="st1"/><path id="path52" d="m 106.90107,130.96505 c 0.8,-0.7 1.6,-1.2 2.4,-1.6 0.8,-0.4 1.5,-0.5 2,-0.5 l -0.2,4.2 c -1.2,-0.1 -2.2,0.1 -3.1,0.6 -0.9,0.5 -1.6,1.2 -2.1,2.1 -0.5,0.9 -0.8,1.8 -0.8,2.8 v 6.8 h -4.2 v -15.9 h 3.8 l 0.3,3.7 c 0.5,-0.8 1.1,-1.6 1.9,-2.2 z" class="st1"/><path id="path54" d="m 132.20107,129.56505 v 15.9 h -4.2 v -2.3 c -0.6,0.7 -1.4,1.3 -2.3,1.9 -0.9,0.6 -2.1,0.8 -3.4,0.8 -1.5,0 -2.9,-0.3 -4.1,-1 -1.2,-0.6 -2.2,-1.6 -2.9,-2.8 -0.7,-1.3 -1.1,-2.8 -1.1,-4.5 0,-1.7 0.4,-3.2 1.1,-4.6 0.7,-1.3 1.7,-2.3 2.9,-3 1.2,-0.7 2.5,-1.1 4,-1.1 2.6,0 4.5,1 5.8,2.9 l 0.3,-2.1 h 3.9 z m -5.9,11.9 c 0.8,-0.6 1.3,-1.4 1.7,-2.5 v -3.5 c -0.3,-1 -0.9,-1.8 -1.7,-2.4 -0.9,-0.6 -1.9,-0.9 -3,-0.9 -1.3,0 -2.5,0.5 -3.4,1.4 -0.9,0.9 -1.4,2.1 -1.4,3.6 0,1 0.2,1.8 0.7,2.6 0.5,0.8 1.1,1.4 1.8,1.8 0.8,0.5 1.6,0.7 2.4,0.7 1.2,0.1 2.1,-0.2 2.9,-0.8 z" class="st1"/><path id="path56" d="m 148.20107,145.36505 c -1,0.3 -2,0.5 -3.1,0.5 -1.8,0 -3.3,-0.3 -4.6,-1 -1.3,-0.7 -2.4,-1.6 -3.1,-2.9 -0.7,-1.3 -1.1,-2.7 -1.1,-4.5 0,-1.7 0.4,-3.1 1.2,-4.4 0.8,-1.3 1.8,-2.2 3.1,-2.9 1.3,-0.7 2.7,-1 4.2,-1 2.5,0 4.6,0.7 6.2,2 l -2.1,2.7 c -0.5,-0.4 -1,-0.7 -1.7,-1 -0.6,-0.3 -1.3,-0.4 -2,-0.4 -1.3,0 -2.4,0.5 -3.2,1.4 -0.9,0.9 -1.3,2.1 -1.3,3.5 0,1.4 0.5,2.6 1.4,3.5 0.9,0.9 2.1,1.4 3.6,1.4 1.3,0 2.3,-0.4 3.2,-1.1 l 2.1,2.6 c -0.9,0.8 -1.7,1.2 -2.8,1.6 z" class="st1"/><path id="path58" d="m 160.10107,122.56505 v 7 h 4.1 v 3.3 h -4.1 v 12.6 h -4.2 v -12.6 h -2.7 v -3.3 h 2.7 v -7 z" class="st1"/></g><path id="path60" d="m 67.3,100.8596 1.8,2.9 c -1.4,1.3 -3,2.1 -4.4,2.6 -1,0.3 -2.2,0.4 -3.1,0.4 -1.8,0 -3.4,-0.4 -4.8,-1.1 -1.3,-0.7 -2.4,-1.7 -3.1,-3 -0.7,-1.3 -1.1,-2.699996 -1.1,-4.399996 0,-1.6 0.4,-3 1.2,-4.3 0.8,-1.3 1.9,-2.3 3.3,-3.1 1.4,-0.8 2.9,-1.1 4.5,-1.1 2.2,0 3.9,0.6 5.4,1.9 1.4,1.3 2.4,3 2.9,5.4 L 57.7,101.1596 c 0.4,0.7 1,1.2 1.7,1.5 0.7,0.4 1.5,0.5 2.3,0.5 2.6,0 4.4,-1.1 5.6,-2.3 z M 58,94.459604 c -0.8,0.9 -1.3,2.1 -1.3,3.6 0,0.3 0,0.5 0,0.6 l 8.3,-3 c -0.3,-0.8 -0.8,-1.4 -1.4,-1.9 -0.6,-0.5 -1.4,-0.8 -2.4,-0.8 -1.2,0.1 -2.3,0.6 -3.2,1.5 z" class="st1"/><path id="path62" d="m 162.6,100.8596 1.8,2.9 c -1.4,1.3 -3,2.1 -4.4,2.6 -1,0.3 -2.2,0.4 -3.1,0.4 -1.8,0 -3.4,-0.4 -4.8,-1.1 -1.3,-0.7 -2.4,-1.7 -3.1,-3 -0.7,-1.3 -1.1,-2.699996 -1.1,-4.399996 0,-1.6 0.4,-3 1.2,-4.3 0.8,-1.3 1.9,-2.3 3.3,-3.1 1.4,-0.8 2.9,-1.1 4.5,-1.1 2.2,0 3.9,0.6 5.4,1.9 1.4,1.3 2.4,3 2.9,5.4 L 153,101.1596 c 0.4,0.7 1,1.2 1.7,1.5 0.7,0.4 1.5,0.5 2.3,0.5 2.6,0 4.5,-1.1 5.6,-2.3 z m -9.2,-6.399996 c -0.8,0.9 -1.3,2.1 -1.3,3.6 0,0.3 0,0.5 0,0.6 l 8.3,-3 c -0.3,-0.8 -0.8,-1.4 -1.4,-1.9 -0.6,-0.5 -1.4,-0.8 -2.4,-0.8 -1.3,0.1 -2.4,0.6 -3.2,1.5 z" class="st1"/><g id="g76" transform="translate(-203.69584,-361.73624)"><path id="path66" d="m 286,365.6 h -0.2 c -0.1,0 0,0.2 -0.1,0.2 l 0.3,65.7 c 0.1,0 0.2,0 0.3,0 5.4,0 17.3,-8.8 21.6,-16.5 8.7,-15.7 7.4,-36 7.4,-36 L 303,373.1 c 0,0 -1,-5.2 -1,-9.4 -0.1,-3.5 -11.1,1.9 -16,1.9 z" class="st0"/><path id="path68" d="m 285.8,434.9 c -5.9,0 -18.7,-8.2 -23.3,-16.3 -8.8,-15.3 -6.9,-36.5 -6.8,-37.4 v -0.5 l 0.3,-0.4 c 0.5,-0.8 13.3,-19.8 46,-18.5 l 1.9,0.1 v 10.4 c 10.2,2.9 13.8,7.3 14,7.5 l 0.3,0.4 0.1,0.5 c 0.1,0.8 2.4,19.1 -7.5,37.4 -5.6,10.1 -18.7,16.8 -25,16.8 z m -26.3,-52.8 c -0.2,3.3 -1.1,21.6 6.4,34.6 4.1,7.1 15.7,14.3 19.9,14.3 4.6,0 16.6,-5.7 21.5,-14.7 8.4,-15.4 7.5,-31.2 7.2,-34.4 -1.1,-1 -4.8,-4.1 -13,-6.2 l -1.5,-0.4 v -9.6 c -26.7,-0.4 -38.6,13.9 -40.5,16.4 z" class="st1"/><circle id="circle70" cx="273" cy="395.1" r="3.6" class="st1"/><circle id="circle72" cx="298.8" cy="395.1" r="3.6" class="st1"/><path id="path74" d="m 294.2,414.1 c -0.2,-0.2 -0.7,-0.4 -1.5,0.1 -0.6,0.5 -1.1,0.7 -2.9,0.6 -0.4,0 -1.1,-0.3 -2.3,-1.4 0,0 0,0 0,0 v -3.7 c 1.6,-0.6 3.5,-1.9 3.5,-3.4 v -0.5 c 0,-2.1 -1.5,-3.9 -3.4,-3.9 H 284 c -1.9,0 -3.4,1.7 -3.4,3.9 v 0.5 c 0,1.5 1.9,2.7 3.5,3.4 v 3.7 c 0,0 0,0 0,0 -1.2,1.1 -1.9,1.4 -2.3,1.4 -1.8,0.2 -2.3,-0.1 -2.9,-0.6 -0.7,-0.6 -1.2,-0.3 -1.5,-0.1 -0.5,0.4 -0.7,1.2 -0.5,1.6 0.3,0.5 0.8,1.1 1.3,1.4 1.1,0.5 2.3,0.8 3.6,0.7 1.9,-0.1 3.2,-1.1 3.8,-1.4 0.1,-0.1 0.2,-0.1 0.2,-0.1 v 0 0 c 0,0 0.1,0.1 0.2,0.1 0.6,0.4 1.9,1.3 3.8,1.4 0.2,0 0.4,0 0.6,0 1.1,0 2.1,-0.2 3,-0.7 0.6,-0.3 1.1,-0.8 1.3,-1.4 0.2,-0.4 0,-1.2 -0.5,-1.6 z" class="st1"/></g></svg>