<svg xmlns="http://www.w3.org/2000/svg" id="Layer_1" viewBox="0 0 223.1 164.8"><style>.st0{fill:#8d6e63}.st1{fill:#795548}.st2{fill:#666}.st3{fill:#7d9199}.st4{fill:#566366}.st5{fill:#855b41}.st6{fill:#774e38}.st7{fill:#69432f}.st8{fill:#bfbfbf}.st9{stroke:#666;stroke-linecap:round;stroke-linejoin:round;stroke-miterlimit:1.5}.st10,.st9{fill:#999}.st11{fill:#f8e6ce}.st12{fill:#a97e3a}.st13{fill:#765221}.st14{fill:#faecd9}.st15{fill:#936239}</style><g id="house1"><path d="M89.8 86.8l-20.3 55.6.3 21.9h20V86.8z" class="st0"/><path d="M89.7 86.7l20.3 55.6-.3 21.9h-20V86.7z" class="st1"/><path d="M114.4 152.3L87.5 78.4l-.7.2 26.9 73.9.7-.2z" class="st2"/><path d="M92.1 78.4l-26.9 73.9.7.2 26.9-73.9-.7-.2z" class="st2"/></g><g id="tree"><path d="M46 117.6v46.2h.7v-46.2H46z" class="st2"/><path d="M46.3 98.8c-9.6 0-17.4 7.8-17.4 17.4s7.8 17.4 17.4 17.4V98.8z" class="st3"/><path d="M46.3 98.8c9.6 0 17.4 7.8 17.4 17.4s-7.8 17.4-17.4 17.4V98.8z" class="st4"/></g><g id="house2"><path d="M122.9 75.9h21.7V164h-21.7z" class="st5"/><path d="M143.9 75.8h21.7v88.1h-21.7z" class="st6"/><path d="M137 139.6h15.4v24.3H137z" class="st7"/><path d="M149.6 0s6.1 31.8 6 33.4c-.1 1.2-4 6-4 6s3.1 1.6 3.6 2.4c.5.8 2.6 1.5 2.6 1.5s9-4.8 8.7-6.9C166 34 149.6 0 149.6 0zm-11.3 0s-6.1 31.8-6 33.4c.1 1.2 4 6 4 6s-3.1 1.6-3.6 2.4c-.5.8-2.6 1.5-2.6 1.5s-9-4.8-8.7-6.9C121.8 34 138.3 0 138.3 0z" class="st8"/><path d="M144.1 37.6c-11.8 0-21.3 10.5-21.3 23.5h21.3V37.6z" class="st5"/><path d="M144.1 37.6c11.8 0 21.4 10.5 21.4 23.5h-21.4V37.6z" class="st6"/><path d="M122.7 60.9h42.9v15h-42.9zm0 44.5h42.9v15h-42.9z" class="st7"/><circle cx="127.9" cy="68.8" r="2.8" class="st9"/><circle cx="127.9" cy="113.4" r="2.8" class="st9"/><circle cx="136" cy="68.8" r="2.8" class="st9"/><circle cx="136" cy="113.4" r="2.8" class="st9"/><circle cx="144.2" cy="68.8" r="2.8" class="st9"/><circle cx="144.2" cy="113.4" r="2.8" class="st9"/><circle cx="152.3" cy="68.8" r="2.8" class="st9"/><circle cx="152.3" cy="113.4" r="2.8" class="st9"/><circle cx="160.5" cy="68.8" r="2.8" class="st9"/><circle cx="160.5" cy="113.4" r="2.8" class="st9"/></g><g id="house21"><path d="M180.4 106.5h21.7v58.4h-21.7z" class="st3"/><path d="M201.4 106.7h21.7v58.1h-21.7z" class="st4"/><path d="M194.5 140.4h15.4v24.3h-15.4z" class="st10"/><path d="M181.6 76.6h7.2v21.2h-7.2z" class="st8"/><path d="M201.6 81.8c-11.8 0-21.3 10.5-21.3 23.5h21.3V81.8z" class="st3"/><path d="M201.6 81.9c11.8 0 21.3 10.5 21.3 23.5h-21.3V81.9z" class="st4"/><path d="M180.2 105.1h42.9v15h-42.9z" class="st10"/><circle cx="185.4" cy="113.1" r="2.8" class="st9"/><circle cx="193.5" cy="113.1" r="2.8" class="st9"/><circle cx="201.7" cy="113.1" r="2.8" class="st9"/><circle cx="209.8" cy="113.1" r="2.8" class="st9"/><circle cx="218" cy="113.1" r="2.8" class="st9"/></g><path d="M81.7 127.4h15.4v24.3H81.7z" class="st7"/><g id="viking"><path d="M5 121c0 2.9 2.3 5.2 5.2 5.2V121H5z" class="st11"/><path d="M10.1 126.1c2.9 0 5.2-2.3 5.2-5.2h-5.2v5.2z" class="st11"/><path d="M10.3 149.1l-.1-23.3H5.1c-2.8 0-5.1 2.3-5.1 5.1V144c0 2.8 2.3 5.1 5.1 5.1h5.2z" class="st12"/><path d="M10.1 149.1l.1-23.3h5.2c2.9 0 5.2 2.3 5.2 5.1V144c0 2.8-2.3 5.1-5.2 5.1h-5.3z" class="st13"/><path d="M8 149.4c0-.4-.3-.7-.7-.7H5.8c-.4 0-.7.3-.7.7V163c0 .4.3.7.7.7h1.4c.4 0 .7-.3.7-.7v-13.6zm-4.8-20.1c0-.4-.3-.7-.7-.7H1c-.4 0-.7.3-.7.7v13.6c0 .4.3.7.7.7h1.4c.4 0 .7-.3.7-.7v-13.6zm17 0c0-.4-.3-.7-.7-.7h-1.4c-.4 0-.7.3-.7.7v13.6c0 .4.3.7.7.7h1.4c.4 0 .7-.3.7-.7v-13.6zM16 149.6c0-.4-.3-.7-.7-.7h-1.4c-.4 0-.7.3-.7.7v13.6c0 .4.3.7.7.7h1.4c.4 0 .7-.3.7-.7v-13.6z" class="st0"/><circle cx="10.4" cy="142.1" r="9.5" class="st7"/><circle cx="2" cy="142.2" r="1.9" class="st11"/><circle cx="18.5" cy="142" r="1.9" class="st14"/><circle cx="10.4" cy="142.1" r="2.8" class="st15"/><path d="M15.4 120.6c0-.1-.1-.1-.1-.1H5.1c-.1 0-.1.1-.1.1v.2c0 .1.1.1.1.1h10.2c.1 0 .1-.1.1-.1v-.2z" class="st10"/><path d="M6.2 111.7s-.8 2.7-.7 3.5c0 .6 1.1 1.3 1.1 1.3s-.6.7-.8 1.1c-.2.4-.6 1.3-.6 1.3s-1.7-2-1.6-3c.2-1.2 2.6-4.2 2.6-4.2zm7.8 0s.8 2.7.7 3.5c0 .6-1.1 1.3-1.1 1.3s.6.7.8 1.1c.2.4.6 1.3.6 1.3s1.7-2 1.6-3c-.1-1.2-2.6-4.2-2.6-4.2z" class="st8"/><path d="M10.1 114.9c-2.9 0-5.2 2.5-5.2 5.6h5.2v-5.6z" class="st3"/><path d="M10.1 114.9c2.9 0 5.2 2.5 5.2 5.6h-5.2v-5.6z" class="st4"/></g></svg>